# xmcd
#
# Track frame offsets:
#	150
#	16204
#	31907
#	53488
#	72116
#	94069
#	123733
#	151775
#	166712
#	185515
#	220708
#
# Disc length: 3239 seconds
#
# Revision: 0
# Processed by: cddbd v1.5.1PL0 Copyright (c) Steve Scherf et al.
# Submitted via: dBpowerAMP V4.0
#
DISCID=810ca50b
DTITLE=Bent and Twisted - The best is yet to come!
DYEAR=2000
DGENRE=Blues
TTITLE0=What I need.
TTITLE1=Splash and the shock!
TTITLE2=Song with no name.
TTITLE3=Dark lonely road.
TTITLE4=Headsman!
TTITLE5=Four bottles and a wall.
TTITLE6=Mind jumble.
TTITLE7=Talk shows
TTITLE8=Still gotta try.
TTITLE9=Yea you.
TTITLE10=DATA
EXTD=
EXTT0=
EXTT1=
EXTT2=
EXTT3=
EXTT4=
EXTT5=
EXTT6=
EXTT7=
EXTT8=
EXTT9=
EXTT10=
PLAYORDER=
